<svg width="72" height="55" viewBox="0 0 72 55" fill="none" xmlns="http://www.w3.org/2000/svg">
<path d="M60.4905 4.98396C55.8572 2.85759 50.9681 1.33997 45.945 0.468922C45.8995 0.461258 45.8528 0.467878 45.8112 0.48787C45.7696 0.507863 45.7353 0.540247 45.7128 0.58057C45.0831 1.69705 44.3864 3.1574 43.8997 4.30067C38.4852 3.47898 32.9778 3.47898 27.5634 4.30067C27.0204 3.02708 26.4061 1.78508 25.7234 0.58057C25.7005 0.540689 25.6661 0.508678 25.6246 0.488749C25.5832 0.468821 25.5366 0.461909 25.4912 0.468922C20.467 1.33531 15.5769 2.85372 10.9457 4.98396C10.9061 4.99908 10.8729 5.02749 10.8519 5.06434C1.58964 18.9042 -0.951461 32.4046 0.294528 45.7354C0.298994 45.7979 0.339187 45.8604 0.388312 45.9006C5.7819 49.8959 11.8147 52.9463 18.2296 54.9218C18.2749 54.936 18.3236 54.9355 18.3686 54.9203C18.4135 54.905 18.4525 54.8758 18.4797 54.8369C19.8552 52.9612 21.0789 50.9828 22.1328 48.9017C22.1548 48.8588 22.1623 48.81 22.1543 48.7625C22.1462 48.7151 22.123 48.6715 22.0882 48.6382C22.0651 48.6164 22.0377 48.5997 22.0078 48.5891C20.0837 47.8496 18.2202 46.9612 16.4343 45.9319C16.3844 45.9036 16.3473 45.8572 16.3307 45.8024C16.3141 45.7475 16.3192 45.6883 16.345 45.6371C16.3602 45.6039 16.3832 45.5748 16.412 45.5523C16.7871 45.2709 17.1623 44.9762 17.5195 44.6814C17.5511 44.656 17.589 44.6397 17.6291 44.6342C17.6692 44.6287 17.7101 44.6342 17.7473 44.6502C29.4435 49.9914 42.1044 49.9914 53.6577 44.6502C53.6963 44.6335 53.7387 44.6275 53.7803 44.633C53.822 44.6386 53.8614 44.6553 53.8944 44.6814C54.2516 44.9762 54.6268 45.2709 55.0019 45.5523C55.0323 45.5745 55.0567 45.6039 55.073 45.6379C55.0892 45.6718 55.0968 45.7093 55.095 45.7469C55.0933 45.7845 55.0822 45.8211 55.0628 45.8534C55.0435 45.8856 55.0164 45.9126 54.9841 45.9319C53.2022 46.9706 51.3364 47.858 49.4061 48.5846C49.3753 48.5958 49.3474 48.6136 49.3242 48.6367C49.3011 48.6599 49.2833 48.6878 49.2722 48.7186C49.2618 48.7484 49.2577 48.7801 49.26 48.8115C49.2623 48.843 49.271 48.8737 49.2855 48.9017C50.3574 50.9784 51.5855 52.9612 52.9342 54.8369C52.9614 54.8758 53.0004 54.905 53.0454 54.9203C53.0903 54.9355 53.139 54.936 53.1843 54.9218C59.6099 52.9524 65.6525 49.9016 71.0524 45.9006C71.0794 45.8819 71.1019 45.8573 71.1181 45.8287C71.1344 45.8001 71.144 45.7682 71.1462 45.7354C72.6378 30.3235 68.6497 16.9347 60.5798 5.06881C60.5717 5.04921 60.5596 5.03153 60.5442 5.01692C60.5288 5.0023 60.5105 4.99107 60.4905 4.98396ZM23.879 37.6164C20.3554 37.6164 17.457 34.383 17.457 30.4173C17.457 26.4471 20.3018 23.2138 23.879 23.2138C27.483 23.2138 30.3546 26.4739 30.301 30.4173C30.301 34.383 27.4562 37.6164 23.879 37.6164ZM47.6198 37.6164C44.1006 37.6164 41.1978 34.383 41.1978 30.4173C41.1978 26.4471 44.0426 23.2138 47.6198 23.2138C51.2238 23.2138 54.0998 26.4739 54.0417 30.4173C54.0417 34.383 51.2238 37.6164 47.6198 37.6164Z" fill="#FF0000"/>
</svg>
