<svg width="68" height="56" viewBox="0 0 68 56" fill="none" xmlns="http://www.w3.org/2000/svg">
<path d="M67.8471 6.69848C65.361 7.80007 62.6904 8.54439 59.8829 8.88082C62.7798 7.14743 64.947 4.41928 65.9803 1.20541C63.2586 2.82204 60.2799 3.95997 57.1735 4.56973C55.0846 2.33935 52.3178 0.86102 49.3026 0.364256C46.2874 -0.132509 43.1926 0.380087 40.4986 1.82246C37.8045 3.26483 35.6621 5.55629 34.4038 8.34105C33.1456 11.1258 32.8419 14.2481 33.54 17.2231C28.0251 16.9462 22.6301 15.5128 17.7051 13.016C12.7801 10.5191 8.43512 7.01455 4.95219 2.72978C3.76128 4.78409 3.0765 7.16591 3.0765 9.70255C3.07517 11.9861 3.63752 14.2347 4.71364 16.2488C5.78976 18.2629 7.34639 19.9802 9.24541 21.2484C7.04305 21.1783 4.88928 20.5832 2.96337 19.5127V19.6913C2.96315 22.8941 4.07101 25.9983 6.09898 28.4772C8.12695 30.9562 10.9501 32.6571 14.0894 33.2915C12.0464 33.8444 9.9044 33.9258 7.82525 33.5297C8.71098 36.2855 10.4363 38.6953 12.7597 40.4218C15.0831 42.1483 17.8882 43.1051 20.7823 43.1582C15.8693 47.015 9.80183 49.107 3.55584 49.0978C2.44943 49.0981 1.34396 49.0335 0.245117 48.9043C6.58515 52.9807 13.9654 55.1441 21.5028 55.1357C47.0181 55.1357 60.9666 34.003 60.9666 15.675C60.9666 15.0795 60.9517 14.4781 60.9249 13.8826C63.6381 11.9205 65.9801 9.49085 67.8411 6.70741L67.8471 6.69848Z" fill="#FF0000"/>
</svg>
